<?xml version="1.0" standalone="no"?>
<!DOCTYPE svg PUBLIC "-//W3C//DTD SVG 20010904//EN"
 "http://www.w3.org/TR/2001/REC-SVG-20010904/DTD/svg10.dtd">
<svg version="1.0" xmlns="http://www.w3.org/2000/svg"
 width="207.000000pt" height="207.000000pt" viewBox="0 0 207.000000 207.000000"
 preserveAspectRatio="xMidYMid meet">
<metadata>
Created by potrace 1.11, written by Peter Selinger 2001-2013
</metadata>
<g transform="translate(0.000000,207.000000) scale(0.100000,-0.100000)"
fill="#000000" stroke="none">
<path d="M970 1850 c-37 -10 -86 -37 -113 -62 -13 -13 -200 -196 -416 -407
-262 -258 -398 -398 -411 -426 -56 -116 -22 -250 82 -325 53 -39 100 -51 204
-52 81 -2 85 -3 79 -22 -55 -182 93 -364 277 -343 85 10 130 41 285 194 80 79
156 151 167 158 16 10 102 13 376 12 348 0 356 0 408 23 90 39 162 144 162
235 0 97 -66 200 -154 241 -44 20 -67 24 -158 24 l-107 0 16 38 c54 127 -27
294 -164 337 -86 27 -149 19 -244 -32 -4 -2 5 19 18 46 96 194 -95 418 -307
361z"/>
<path d="M1337 462 c2 -126 3 -132 13 -132 6 0 10 42 10 105 0 77 -3 105 -12
105 -10 0 -13 -21 -11 -78z"/>
<path d="M1382 531 c2 -7 7 -12 11 -12 12 1 9 15 -3 20 -7 2 -11 -2 -8 -8z"/>
<path d="M1572 529 c2 -6 8 -10 13 -10 5 0 11 4 13 10 2 6 -4 11 -13 11 -9 0
-15 -5 -13 -11z"/>
<path d="M1222 467 c-30 -34 -33 -56 -16 -93 12 -25 24 -35 50 -40 38 -7 64 0
64 16 0 8 -11 9 -31 5 -38 -9 -69 16 -69 56 0 35 32 59 71 52 17 -2 29 0 29 6
0 12 -2 13 -47 17 -22 1 -37 -4 -51 -19z"/>
<path d="M1386 483 c-3 -3 -6 -40 -6 -80 0 -54 3 -74 12 -71 8 3 12 29 13 77
0 70 -5 88 -19 74z"/>
<path d="M1452 474 c-19 -13 -22 -25 -22 -80 0 -36 4 -64 10 -64 6 0 10 24 10
54 0 68 20 95 54 73 16 -11 22 -26 24 -71 2 -31 7 -56 12 -56 15 0 12 113 -3
133 -17 24 -59 30 -85 11z"/>
<path d="M1661 478 c-25 -9 -51 -62 -44 -89 10 -39 43 -60 86 -57 24 2 40 7
37 13 -3 6 -18 9 -33 7 -54 -6 -85 49 -53 93 9 13 25 18 50 17 20 -1 36 3 36
8 0 6 -3 10 -7 11 -5 0 -18 2 -29 3 -12 1 -31 -1 -43 -6z"/>
<path d="M1574 408 c1 -43 5 -73 12 -75 8 -3 11 19 11 72 -1 49 -5 75 -13 75
-7 0 -11 -24 -10 -72z"/>
<path d="M1217 283 c-4 -3 -7 -16 -6 -27 0 -12 3 -15 6 -8 2 6 9 12 14 12 6 0
7 -4 4 -10 -3 -5 -1 -10 4 -10 16 0 13 20 -4 26 -8 4 -12 10 -9 15 6 11 0 12
-9 2z"/>
<path d="M1818 250 c2 -22 6 -40 8 -40 2 0 4 18 4 40 0 22 -3 40 -8 40 -4 0
-6 -18 -4 -40z"/>
<path d="M1870 286 c0 -2 7 -7 16 -10 8 -3 12 -2 9 4 -6 10 -25 14 -25 6z"/>
<path d="M1951 280 c20 -12 14 -57 -10 -64 -11 -3 -10 -4 4 -3 35 4 37 78 1
77 -6 0 -4 -5 5 -10z"/>
<path d="M1598 266 c-18 -10 -29 -11 -36 -4 -6 6 -18 8 -27 4 -22 -8 -16 -50
8 -52 12 -1 13 -1 2 3 -22 7 -20 46 3 41 9 -2 16 -10 14 -17 -1 -7 2 -10 7 -7
5 3 11 -1 15 -9 6 -16 46 -21 46 -6 0 5 -8 7 -19 4 -11 -3 -21 2 -24 12 -8 20
18 31 37 16 11 -10 14 -9 12 3 -3 24 -10 26 -38 12z"/>
<path d="M1853 266 c1 -11 9 -21 17 -23 10 -3 11 -2 4 4 -6 4 -14 15 -17 23
-5 11 -6 9 -4 -4z"/>
<path d="M2002 268 c-18 -18 -14 -38 8 -38 12 0 20 7 20 18 0 14 -2 15 -10 2
-5 -8 -12 -11 -16 -7 -4 3 -1 13 6 22 15 18 9 20 -8 3z"/>
<path d="M1276 255 c19 -15 19 -15 0 -30 -11 -8 -15 -15 -9 -15 6 0 16 7 23
15 10 12 10 18 0 30 -7 8 -17 15 -23 15 -6 0 -2 -7 9 -15z"/>
<path d="M1393 263 c-7 -2 -12 -17 -12 -31 1 -21 2 -23 6 -7 8 32 20 40 40 24
16 -13 17 -12 4 4 -14 18 -18 19 -38 10z"/>
<path d="M1456 263 c-10 -10 -7 -41 4 -48 14 -9 50 4 50 18 0 8 -3 8 -12 -1
-19 -19 -38 -14 -38 9 0 16 5 20 20 16 11 -3 22 -2 24 2 6 9 -39 13 -48 4z"/>
<path d="M1682 240 c0 -19 2 -27 5 -17 2 9 2 25 0 35 -3 9 -5 1 -5 -18z"/>
<path d="M1713 236 c-1 -19 1 -23 4 -11 3 11 9 25 14 31 5 7 4 11 -4 11 -8 0
-13 -13 -14 -31z"/>
<path d="M1750 250 c0 -5 5 -10 11 -10 5 0 7 5 4 10 -3 6 -8 10 -11 10 -2 0
-4 -4 -4 -10z"/>
<path d="M1894 245 c3 -8 -2 -19 -12 -24 -9 -6 -12 -11 -5 -11 13 0 26 17 29
38 1 6 -2 12 -8 12 -6 0 -8 -7 -4 -15z"/>
<path d="M1920 250 c0 -6 7 -10 15 -10 8 0 15 2 15 4 0 2 -7 6 -15 10 -8 3
-15 1 -15 -4z"/>
<path d="M1310 236 c0 -8 4 -17 9 -20 5 -4 7 3 4 14 -6 23 -13 26 -13 6z"/>
<path d="M1345 220 c-3 -5 -1 -10 4 -10 6 0 11 5 11 10 0 6 -2 10 -4 10 -3 0
-8 -4 -11 -10z"/>
</g>
</svg>
